<?xml version="1.0" standalone="no"?>
<!DOCTYPE svg PUBLIC "-//W3C//DTD SVG 20010904//EN"
 "http://www.w3.org/TR/2001/REC-SVG-20010904/DTD/svg10.dtd">
<svg version="1.0" xmlns="http://www.w3.org/2000/svg"
 width="700.000000pt" height="700.000000pt" viewBox="0 0 700.000000 700.000000"
 preserveAspectRatio="xMidYMid meet">
<metadata>
Created by potrace 1.14, written by Peter Selinger 2001-2017
</metadata>
<g transform="translate(0.000000,700.000000) scale(0.100000,-0.100000)"
fill="#000000" stroke="none">
<path d="M1295 5943 c-141 -31 -215 -62 -303 -126 -104 -75 -183 -174 -236
-294 -58 -133 -56 -43 -53 -2058 l2 -1850 21 -60 c39 -109 65 -160 124 -235
99 -128 229 -211 393 -250 80 -20 123 -20 2277 -17 1207 1 2209 6 2225 10 89
22 151 49 235 103 138 87 234 214 294 388 21 61 21 65 23 1909 3 1658 2 1855
-13 1925 -47 227 -195 410 -410 505 -135 60 0 56 -2379 55 -1199 0 -2189 -2
-2200 -5z m951 -1077 c52 -24 124 -91 622 -589 646 -645 627 -621 627 -777 0
-156 20 -132 -632 -781 -540 -538 -571 -568 -628 -589 -80 -30 -179 -30 -257
-1 -154 59 -252 237 -216 394 23 103 36 118 471 555 l422 422 -416 418 c-229
229 -425 431 -436 447 -11 17 -28 58 -38 92 -53 181 53 371 238 428 67 21 174
12 243 -19z m2806 -2104 c77 -37 128 -90 167 -172 22 -46 26 -69 26 -140 0
-76 -4 -93 -32 -151 -38 -77 -93 -130 -171 -167 l-57 -27 -610 0 c-504 0 -615
2 -640 14 -16 8 -33 14 -36 13 -16 -3 -108 80 -137 122 -110 165 -61 395 105
493 90 52 84 52 723 50 l595 -2 67 -33z"/>
</g>
</svg>
