<svg width="1123" height="208" viewBox="0 0 1123 208" fill="none" xmlns="http://www.w3.org/2000/svg">
<path fill-rule="evenodd" clip-rule="evenodd" d="M21 51.8C21 46.2835 23.1914 40.9929 27.0922 37.0922C30.9929 33.1914 36.2835 31 41.8 31H166.6C172.116 31 177.407 33.1914 181.308 37.0922C185.209 40.9929 187.4 46.2835 187.4 51.8V155.8C187.4 161.317 185.209 166.607 181.308 170.508C177.407 174.409 172.116 176.6 166.6 176.6H41.8C36.2835 176.6 30.9929 174.409 27.0922 170.508C23.1914 166.607 21 161.317 21 155.8V51.8ZM55.2472 65.2472C57.1975 63.2975 59.8423 62.2022 62.6 62.2022C65.3577 62.2022 68.0025 63.2975 69.9528 65.2472L101.153 96.4472C103.102 98.3975 104.198 101.042 104.198 103.8C104.198 106.558 103.102 109.203 101.153 111.153L69.9528 142.353C67.9913 144.247 65.3643 145.296 62.6374 145.272C59.9106 145.248 57.3021 144.154 55.3739 142.226C53.4456 140.298 52.3519 137.689 52.3282 134.963C52.3045 132.236 53.3528 129.609 55.2472 127.647L79.0944 103.8L55.2472 79.9528C53.2975 78.0025 52.2022 75.3577 52.2022 72.6C52.2022 69.8423 53.2975 67.1975 55.2472 65.2472V65.2472ZM114.6 124.6C111.842 124.6 109.196 125.696 107.246 127.646C105.296 129.596 104.2 132.242 104.2 135C104.2 137.758 105.296 140.404 107.246 142.354C109.196 144.304 111.842 145.4 114.6 145.4H145.8C148.558 145.4 151.204 144.304 153.154 142.354C155.104 140.404 156.2 137.758 156.2 135C156.2 132.242 155.104 129.596 153.154 127.646C151.204 125.696 148.558 124.6 145.8 124.6H114.6Z" fill="black"/>
<path d="M256.045 150L229.409 56.9091H250.909L266.318 121.591H267.091L284.091 56.9091H302.5L319.455 121.727H320.273L335.682 56.9091H357.182L330.545 150H311.364L293.636 89.1364H292.909L275.227 150H256.045ZM379.761 151.318C375.307 151.318 371.337 150.545 367.852 149C364.367 147.424 361.61 145.106 359.58 142.045C357.58 138.955 356.58 135.106 356.58 130.5C356.58 126.621 357.292 123.364 358.716 120.727C360.14 118.091 362.08 115.97 364.534 114.364C366.989 112.758 369.777 111.545 372.898 110.727C376.049 109.909 379.352 109.333 382.807 109C386.867 108.576 390.14 108.182 392.625 107.818C395.11 107.424 396.913 106.848 398.034 106.091C399.155 105.333 399.716 104.212 399.716 102.727V102.455C399.716 99.5758 398.807 97.3485 396.989 95.7727C395.201 94.197 392.655 93.4091 389.352 93.4091C385.867 93.4091 383.095 94.1818 381.034 95.7273C378.973 97.2424 377.61 99.1515 376.943 101.455L359.034 100C359.943 95.7576 361.731 92.0909 364.398 89C367.064 85.8788 370.504 83.4848 374.716 81.8182C378.958 80.1212 383.867 79.2727 389.443 79.2727C393.322 79.2727 397.034 79.7273 400.58 80.6364C404.155 81.5455 407.322 82.9545 410.08 84.8636C412.867 86.7727 415.064 89.2273 416.67 92.2273C418.277 95.197 419.08 98.7576 419.08 102.909V150H400.716V140.318H400.17C399.049 142.5 397.549 144.424 395.67 146.091C393.792 147.727 391.534 149.015 388.898 149.955C386.261 150.864 383.216 151.318 379.761 151.318ZM385.307 137.955C388.155 137.955 390.67 137.394 392.852 136.273C395.034 135.121 396.746 133.576 397.989 131.636C399.231 129.697 399.852 127.5 399.852 125.045V117.636C399.246 118.03 398.413 118.394 397.352 118.727C396.322 119.03 395.155 119.318 393.852 119.591C392.549 119.833 391.246 120.061 389.943 120.273C388.64 120.455 387.458 120.621 386.398 120.773C384.125 121.106 382.14 121.636 380.443 122.364C378.746 123.091 377.428 124.076 376.489 125.318C375.549 126.53 375.08 128.045 375.08 129.864C375.08 132.5 376.034 134.515 377.943 135.909C379.883 137.273 382.337 137.955 385.307 137.955ZM434.102 150V80.1818H452.875V92.3636H453.602C454.875 88.0303 457.011 84.7576 460.011 82.5455C463.011 80.303 466.466 79.1818 470.375 79.1818C471.345 79.1818 472.39 79.2424 473.511 79.3636C474.633 79.4848 475.617 79.6515 476.466 79.8636V97.0455C475.557 96.7727 474.299 96.5303 472.693 96.3182C471.087 96.1061 469.617 96 468.284 96C465.436 96 462.89 96.6212 460.648 97.8636C458.436 99.0758 456.678 100.773 455.375 102.955C454.102 105.136 453.466 107.652 453.466 110.5V150H434.102ZM486.477 176.182V80.1818H505.568V91.9091H506.432C507.28 90.0303 508.508 88.1212 510.114 86.1818C511.75 84.2121 513.871 82.5758 516.477 81.2727C519.114 79.9394 522.386 79.2727 526.295 79.2727C531.386 79.2727 536.083 80.6061 540.386 83.2727C544.689 85.9091 548.129 89.8939 550.705 95.2273C553.28 100.53 554.568 107.182 554.568 115.182C554.568 122.97 553.311 129.545 550.795 134.909C548.311 140.242 544.917 144.288 540.614 147.045C536.341 149.773 531.553 151.136 526.25 151.136C522.492 151.136 519.295 150.515 516.659 149.273C514.053 148.03 511.917 146.47 510.25 144.591C508.583 142.682 507.311 140.758 506.432 138.818H505.841V176.182H486.477ZM505.432 115.091C505.432 119.242 506.008 122.864 507.159 125.955C508.311 129.045 509.977 131.455 512.159 133.182C514.341 134.879 516.992 135.727 520.114 135.727C523.265 135.727 525.932 134.864 528.114 133.136C530.295 131.379 531.947 128.955 533.068 125.864C534.22 122.742 534.795 119.152 534.795 115.091C534.795 111.061 534.235 107.515 533.114 104.455C531.992 101.394 530.341 99 528.159 97.2727C525.977 95.5455 523.295 94.6818 520.114 94.6818C516.962 94.6818 514.295 95.5151 512.114 97.1818C509.962 98.8485 508.311 101.212 507.159 104.273C506.008 107.333 505.432 110.939 505.432 115.091ZM610.977 104.091V119.455H568.523V104.091H610.977ZM620.42 73.1364V56.9091H696.875V73.1364H668.375V150H648.92V73.1364H620.42ZM728.466 109.636V150H709.102V56.9091H727.92V92.5H728.739C730.314 88.3788 732.86 85.1515 736.375 82.8182C739.89 80.4545 744.299 79.2727 749.602 79.2727C754.451 79.2727 758.678 80.3333 762.284 82.4545C765.92 84.5455 768.739 87.5606 770.739 91.5C772.769 95.4091 773.769 100.091 773.739 105.545V150H754.375V109C754.405 104.697 753.314 101.348 751.102 98.9545C748.92 96.5606 745.86 95.3636 741.92 95.3636C739.284 95.3636 736.951 95.9242 734.92 97.0455C732.92 98.1667 731.345 99.803 730.193 101.955C729.072 104.076 728.496 106.636 728.466 109.636ZM820.795 151.364C813.614 151.364 807.432 149.909 802.25 147C797.098 144.061 793.129 139.909 790.341 134.545C787.553 129.152 786.159 122.773 786.159 115.409C786.159 108.227 787.553 101.924 790.341 96.5C793.129 91.0758 797.053 86.8485 802.114 83.8182C807.205 80.7879 813.174 79.2727 820.023 79.2727C824.629 79.2727 828.917 80.0152 832.886 81.5C836.886 82.9545 840.371 85.1515 843.341 88.0909C846.341 91.0303 848.674 94.7273 850.341 99.1818C852.008 103.606 852.841 108.788 852.841 114.727V120.045H793.886V108.045H834.614C834.614 105.258 834.008 102.788 832.795 100.636C831.583 98.4848 829.902 96.803 827.75 95.5909C825.629 94.3485 823.159 93.7273 820.341 93.7273C817.402 93.7273 814.795 94.4091 812.523 95.7727C810.28 97.1061 808.523 98.9091 807.25 101.182C805.977 103.424 805.326 105.924 805.295 108.682V120.091C805.295 123.545 805.932 126.53 807.205 129.045C808.508 131.561 810.341 133.5 812.705 134.864C815.068 136.227 817.871 136.909 821.114 136.909C823.265 136.909 825.235 136.606 827.023 136C828.811 135.394 830.341 134.485 831.614 133.273C832.886 132.061 833.856 130.576 834.523 128.818L852.432 130C851.523 134.303 849.659 138.061 846.841 141.273C844.053 144.455 840.447 146.939 836.023 148.727C831.629 150.485 826.553 151.364 820.795 151.364ZM865.477 150V80.1818H883.932V92.5H884.75C886.205 88.4091 888.629 85.1818 892.023 82.8182C895.417 80.4545 899.477 79.2727 904.205 79.2727C908.992 79.2727 913.068 80.4697 916.432 82.8636C919.795 85.2273 922.038 88.4394 923.159 92.5H923.886C925.311 88.5 927.886 85.303 931.614 82.9091C935.371 80.4848 939.811 79.2727 944.932 79.2727C951.447 79.2727 956.735 81.3485 960.795 85.5C964.886 89.6212 966.932 95.4697 966.932 103.045V150H947.614V106.864C947.614 102.985 946.583 100.076 944.523 98.1364C942.462 96.197 939.886 95.2273 936.795 95.2273C933.28 95.2273 930.538 96.3485 928.568 98.5909C926.598 100.803 925.614 103.727 925.614 107.364V150H906.841V106.455C906.841 103.03 905.856 100.303 903.886 98.2727C901.947 96.2424 899.386 95.2273 896.205 95.2273C894.053 95.2273 892.114 95.7727 890.386 96.8636C888.689 97.9242 887.341 99.4242 886.341 101.364C885.341 103.273 884.841 105.515 884.841 108.091V150H865.477ZM1014.05 151.364C1006.86 151.364 1000.68 149.909 995.5 147C990.348 144.061 986.379 139.909 983.591 134.545C980.803 129.152 979.409 122.773 979.409 115.409C979.409 108.227 980.803 101.924 983.591 96.5C986.379 91.0758 990.303 86.8485 995.364 83.8182C1000.45 80.7879 1006.42 79.2727 1013.27 79.2727C1017.88 79.2727 1022.17 80.0152 1026.14 81.5C1030.14 82.9545 1033.62 85.1515 1036.59 88.0909C1039.59 91.0303 1041.92 94.7273 1043.59 99.1818C1045.26 103.606 1046.09 108.788 1046.09 114.727V120.045H987.136V108.045H1027.86C1027.86 105.258 1027.26 102.788 1026.05 100.636C1024.83 98.4848 1023.15 96.803 1021 95.5909C1018.88 94.3485 1016.41 93.7273 1013.59 93.7273C1010.65 93.7273 1008.05 94.4091 1005.77 95.7727C1003.53 97.1061 1001.77 98.9091 1000.5 101.182C999.227 103.424 998.576 105.924 998.545 108.682V120.091C998.545 123.545 999.182 126.53 1000.45 129.045C1001.76 131.561 1003.59 133.5 1005.95 134.864C1008.32 136.227 1011.12 136.909 1014.36 136.909C1016.52 136.909 1018.48 136.606 1020.27 136C1022.06 135.394 1023.59 134.485 1024.86 133.273C1026.14 132.061 1027.11 130.576 1027.77 128.818L1045.68 130C1044.77 134.303 1042.91 138.061 1040.09 141.273C1037.3 144.455 1033.7 146.939 1029.27 148.727C1024.88 150.485 1019.8 151.364 1014.05 151.364ZM1116.82 100.091L1099.09 101.182C1098.79 99.6667 1098.14 98.303 1097.14 97.0909C1096.14 95.8485 1094.82 94.8636 1093.18 94.1364C1091.58 93.3788 1089.65 93 1087.41 93C1084.41 93 1081.88 93.6364 1079.82 94.9091C1077.76 96.1515 1076.73 97.8182 1076.73 99.9091C1076.73 101.576 1077.39 102.985 1078.73 104.136C1080.06 105.288 1082.35 106.212 1085.59 106.909L1098.23 109.455C1105.02 110.848 1110.08 113.091 1113.41 116.182C1116.74 119.273 1118.41 123.333 1118.41 128.364C1118.41 132.939 1117.06 136.955 1114.36 140.409C1111.7 143.864 1108.03 146.561 1103.36 148.5C1098.73 150.409 1093.38 151.364 1087.32 151.364C1078.08 151.364 1070.71 149.439 1065.23 145.591C1059.77 141.712 1056.58 136.439 1055.64 129.773L1074.68 128.773C1075.26 131.591 1076.65 133.742 1078.86 135.227C1081.08 136.682 1083.91 137.409 1087.36 137.409C1090.76 137.409 1093.48 136.758 1095.55 135.455C1097.64 134.121 1098.7 132.409 1098.73 130.318C1098.7 128.561 1097.95 127.121 1096.5 126C1095.05 124.848 1092.8 123.97 1089.77 123.364L1077.68 120.955C1070.86 119.591 1065.79 117.227 1062.45 113.864C1059.15 110.5 1057.5 106.212 1057.5 101C1057.5 96.5151 1058.71 92.6515 1061.14 89.4091C1063.59 86.1667 1067.03 83.6667 1071.45 81.9091C1075.91 80.1515 1081.12 79.2727 1087.09 79.2727C1095.91 79.2727 1102.85 81.1364 1107.91 84.8636C1113 88.5909 1115.97 93.6667 1116.82 100.091Z" fill="black"/>
</svg>
