<svg width="185" height="148" viewBox="0 0 185 148" fill="none" xmlns="http://www.w3.org/2000/svg">
<path d="M94.2751 0.611876C94.328 0.393228 94.3544 0.283905 94.4148 0.202446C94.468 0.130579 94.5395 0.0743008 94.6219 0.0394747C94.7152 0 94.8277 0 95.0527 0H164.061C175.334 0 184.472 9.44298 184.472 21.0915V102.976C184.472 114.624 175.334 124.067 164.061 124.067H65.4235C65.0766 124.067 64.9032 124.067 64.7841 123.995C64.6798 123.933 64.6019 123.834 64.5653 123.717C64.5236 123.585 64.5644 123.416 64.6459 123.079L94.2751 0.611876Z" fill="black"/>
<path d="M76.0981 24.4909C76.1789 24.1542 76.2193 23.9859 76.1774 23.8534C76.1407 23.7374 76.0629 23.6387 75.9585 23.5759C75.8396 23.5043 75.6664 23.5043 75.3202 23.5043H20.2371C9.06046 23.5043 0 32.9472 0 44.5957V126.48C0 138.129 9.06046 147.572 20.2371 147.572H88.6504C88.8758 147.572 88.9885 147.572 89.0819 147.532C89.1644 147.497 89.236 147.441 89.2892 147.369C89.3495 147.287 89.3758 147.177 89.4283 146.958L91.8132 137.016C91.894 136.679 91.9344 136.511 91.8925 136.378C91.8558 136.262 91.778 136.164 91.6737 136.101C91.5547 136.029 91.3816 136.029 91.0353 136.029H50.3577C50.0115 136.029 49.8384 136.029 49.7194 135.958C49.6151 135.895 49.5373 135.796 49.5005 135.68C49.4586 135.548 49.499 135.379 49.5798 135.043L76.0981 24.4909Z" fill="black"/>
</svg>
